<svg width="30" height="54" viewBox="0 0 30 54" fill="none" xmlns="http://www.w3.org/2000/svg">
<path id="Vector" d="M24.375 53.25H5.625C2.4375 53.25 0 50.8125 0 47.625V6.375C0 3.1875 2.4375 0.75 5.625 0.75H24.375C27.5625 0.75 30 3.1875 30 6.375V47.625C30 50.8125 27.5625 53.25 24.375 53.25ZM22.875 6.375H7.125C6 6.375 5.25 7.125 5.25 8.25C5.25 9.375 6 10.125 7.125 10.125H22.875C24 10.125 24.75 9.375 24.75 8.25C24.75 7.125 24 6.375 22.875 6.375ZM26.25 13.75H3.75V42H26.25V13.75Z" fill="black"/>
</svg>
