<svg width="60" height="60" viewBox="0 0 60 60" fill="none" xmlns="http://www.w3.org/2000/svg">
<g id="wallet-svgrepo-com 1" clip-path="url(#clip0_343_445)">
<g id="Shopicon">
<path id="Vector" d="M50 17.5H40V5L5 17.5V50C5 52.75 7.25 55 10 55H50C52.75 55 55 52.75 55 50V22.5C55 19.75 52.75 17.5 50 17.5ZM45 36.25C45 37.6312 43.8812 38.75 42.5 38.75C41.1187 38.75 40 37.6312 40 36.25C40 34.8687 41.1187 33.75 42.5 33.75C43.8812 33.75 45 34.8687 45 36.25ZM35 12.095V17.5H19.8662L35 12.095Z" fill="black"/>
</g>
</g>
<defs>
<clipPath id="clip0_343_445">
<rect width="60" height="60" fill="white"/>
</clipPath>
</defs>
</svg>
