<svg width="60" height="60" viewBox="0 0 60 60" fill="none" xmlns="http://www.w3.org/2000/svg">
<g id="preview-svgrepo-com 1">
<g id="Vector">
<path d="M6.9 4C3.655 4 1 6.65 1 9.88889V51.1111C1 54.35 3.655 57 6.9 57H54.1C57.345 57 60 54.35 60 51.1111V9.88889C60 6.65 57.345 4 54.1 4H6.9ZM6.9 11.8889C6.9 10.7843 7.79543 9.88889 8.9 9.88889H52.1C53.2046 9.88889 54.1 10.7843 54.1 11.8889V49.1111C54.1 50.2157 53.2046 51.1111 52.1 51.1111H8.9C7.79543 51.1111 6.9 50.2157 6.9 49.1111V11.8889ZM30.5 18.7222C20.765 18.7222 12.8 28.4389 12.8 30.5C12.8 32.5611 20.765 42.2778 30.5 42.2778C40.235 42.2778 48.2 31.9722 48.2 30.5C48.2 29.0278 40.235 18.7222 30.5 18.7222ZM30.5 23.1389V27.5556C30.5 29.3222 31.68 30.5 33.45 30.5H37.875C37.875 35.2111 33.45 38.7444 28.435 37.5667C26.075 36.9778 24.01 34.9167 23.125 32.2667C22.24 27.5556 25.78 23.1389 30.5 23.1389Z" fill="black"/>
</g>
</g>
</svg>
